<svg width="456" height="342" viewBox="0 0 456 342" fill="none" xmlns="http://www.w3.org/2000/svg">
<path d="M210.465 77.2641L47.4972 146.493L207.885 201.533L372.573 138.323L210.465 77.2641Z" fill="url(#paint0_linear_31_328)"/>
<path d="M192.785 88.8571L183.651 67.0107L10.7208 131.812C26.2358 134.761 33.4684 137.005 47.8146 144.843L192.785 88.8571Z" fill="#EEEEEE" stroke="#0A0D11" stroke-width="3"/>
<path d="M382.886 122.779C389.018 119.859 394.586 115.058 397.378 112.432L208.173 61.6517L199.639 85.9944L370.169 136.921C371.441 133.945 375.273 126.404 382.886 122.779Z" fill="#E2E2E2" stroke="#0A0D11" stroke-width="3"/>
<path d="M229.163 257.432C305.186 257.432 325.052 193.506 325.482 161.543C326.628 155.38 328.578 141.075 327.202 133.164C325.482 123.274 321.612 107.364 313.442 96.184C313.442 93.174 322.042 60.4944 321.612 45.4446C321.182 30.3948 320.322 27.3848 313.442 9.755C278.612 15.3449 253.243 40.2846 246.363 42.8646C242.063 41.5746 216.693 39.4247 207.663 38.9947C198.633 38.5647 180.143 39.4247 165.524 44.1546C133.274 16.6349 101.884 17.0649 93.7144 15.3449C91.5645 20.0749 89.8445 42.4346 88.5545 60.4944C87.2645 78.5542 94.1444 98.334 95.8644 102.634C94.1444 106.074 87.6945 126.284 84.6845 136.604C82.2766 144.859 81.1013 165.843 80.8146 175.303C74.3647 214.433 134.134 257.432 229.163 257.432Z" fill="#FAFAFA" stroke="#0B0A0C" stroke-width="6"/>
<path d="M317.742 61.7843C317.312 54.0444 312.152 40.7146 312.152 40.7146L283.342 55.3344C281.336 55.1911 276.204 55.6784 271.732 58.7744C289.362 71.2442 304.842 106.934 304.842 122.414C305.272 159.393 288.932 165.413 289.792 165.413C301.975 162.116 326.428 153.803 326.772 146.923C327.116 140.043 324.192 113.384 310.862 96.1839C310.862 96.1839 318.1 68.2386 317.742 61.7843Z" fill="#AAAAA6"/>
<path d="M97.9819 41.0918C97.3825 39.777 99.9697 29.3612 106.661 29.3612C118.276 32.2374 133.263 50.6332 138.134 58.4401C127.343 61.0698 109.909 79.9759 106.661 86.2762C100.667 75.5931 98.5814 42.4067 97.9819 41.0918Z" fill="url(#paint1_linear_31_328)" stroke="#413E40" stroke-width="3"/>
<path d="M97.5844 41.0918C97.5844 36.7471 98.3795 26.5301 106.33 28.4922C118.654 31.5335 134.556 49.3466 139.724 57.6015C128.275 60.3821 109.776 81.3523 106.33 88.0141C99.9696 76.718 97.5844 42.6462 97.5844 41.0918Z" stroke="#0B0A0C" stroke-width="3"/>
<path d="M310.504 42.8378C311.152 41.5365 310.774 31.9935 310.504 27.3846C297.941 30.2313 281.731 50.1577 276.462 57.8843C288.134 60.4869 298.076 73.6085 301.588 79.844C308.072 69.2708 309.855 44.1391 310.504 42.8378Z" fill="url(#paint2_linear_31_328)" stroke="#413E40" stroke-width="3"/>
<path d="M310.862 41.1446C311.55 39.7686 311.149 29.6781 310.862 24.8048C297.532 27.8148 280.332 48.8845 274.742 57.0544C287.126 59.8064 297.675 73.6809 301.402 80.2742C308.282 69.0943 310.174 42.5206 310.862 41.1446Z" stroke="#0B0A0C" stroke-width="3"/>
<path d="M209.383 182.613V192.503" stroke="#110F12" stroke-width="4" stroke-linecap="round"/>
<path d="M201.643 175.303C202.331 173.927 211.533 174.443 215.833 174.873C216.693 174.915 216.263 176.593 216.263 177.453C216.263 178.313 211.963 180.893 211.103 181.753C210.243 182.613 209.813 181.753 208.093 181.753C206.373 181.753 200.783 177.023 201.643 175.303Z" fill="url(#paint3_linear_31_328)" stroke="#110F12" stroke-width="3"/>
<path d="M239.483 154.233C239.483 167.769 250.456 178.743 263.992 178.743C277.529 178.743 288.502 167.769 288.502 154.233C288.502 140.697 277.529 129.723 263.992 129.723C250.456 129.723 239.483 140.697 239.483 154.233Z" fill="#A9A9A8"/>
<path d="M241.203 155.953C241.203 169.489 252.176 180.463 265.712 180.463C279.249 180.463 290.222 169.489 290.222 155.953C290.222 142.417 279.249 131.443 265.712 131.443C252.176 131.443 241.203 142.417 241.203 155.953Z" fill="#151418"/>
<ellipse cx="7.73991" cy="11.6099" rx="7.73991" ry="11.6099" transform="matrix(-1 0 0 1 283.772 140.903)" fill="#FCFCFD"/>
<path d="M124.244 155.093C124.244 168.63 135.217 179.603 148.754 179.603C162.29 179.603 173.264 168.63 173.264 155.093C173.264 141.557 162.29 130.583 148.754 130.583C135.217 130.583 124.244 141.557 124.244 155.093Z" fill="#A9A9A8"/>
<path d="M125.964 156.813C125.964 170.35 136.937 181.323 150.474 181.323C164.01 181.323 174.983 170.35 174.983 156.813C174.983 143.277 164.01 132.304 150.474 132.304C136.937 132.304 125.964 143.277 125.964 156.813Z" fill="#151418"/>
<ellipse cx="7.73991" cy="11.6099" rx="7.73991" ry="11.6099" transform="matrix(-1 0 0 1 168.534 141.763)" fill="#FCFCFD"/>
<path d="M131.124 102.204L156.924 126.283" stroke="url(#paint4_linear_31_328)" stroke-width="3" stroke-linecap="round"/>
<path d="M277.322 101.344L253.243 125.424" stroke="url(#paint5_linear_31_328)" stroke-width="3" stroke-linecap="round"/>
<g filter="url(#filter0_f_31_328)">
<ellipse cx="67.5092" cy="15.4798" rx="67.5092" ry="15.4798" transform="matrix(-0.967328 -0.253528 -0.253528 0.967328 177.563 186.314)" fill="url(#paint6_radial_31_328)"/>
</g>
<path d="M45.3473 287.225C45.7773 292.939 193.24 346.094 208.315 339.561C221.215 333.971 207.885 191.952 207.885 191.952C207.885 191.952 68.997 155.953 48.7872 146.923C28.5966 137.902 44.9173 281.512 45.3473 287.225Z" fill="url(#paint7_linear_31_328)" stroke="black" stroke-width="3"/>
<path d="M213.637 338.87C214.531 343.52 359.244 284.617 359.244 284.617C359.244 284.617 353.224 187.773 369.133 137.893C360.964 142.623 210.549 193.162 210.549 193.162C210.549 193.162 209.666 318.202 213.637 338.87Z" fill="url(#paint8_linear_31_328)" stroke="black" stroke-width="3"/>
<path d="M213.521 339.042C219.925 337.411 214.548 193.384 214.548 193.384L208.958 193.345C208.958 193.345 204.875 336.121 207.931 339.003C209.519 340.501 211.405 339.581 213.521 339.042Z" fill="#F2F1F2" stroke="black" stroke-width="3"/>
<g filter="url(#filter1_f_31_328)">
<ellipse cx="100.169" cy="15.4798" rx="100.169" ry="15.4798" transform="matrix(-0.992797 0.119806 0.119806 0.992797 423.474 150.367)" fill="url(#paint9_radial_31_328)"/>
</g>
<path d="M213.683 190.783L371.416 139.184C371.416 139.184 385.681 137.894 395.141 137.034C404.601 136.174 417.501 139.184 417.501 139.184C355.422 163.65 322.127 174.915 265.282 190.783C265.282 190.783 250.663 188.633 241.203 188.633C231.743 188.633 213.683 190.783 213.683 190.783Z" fill="#FAFAFC" stroke="black" stroke-width="3"/>
<path d="M45.985 146.762L5.56546 157.673L82.9645 183.473L116.504 191.213L173.263 203.253L213.683 189.493C213.683 189.493 139.294 166.273 115.214 160.253C96.7978 155.649 86.4045 153.642 86.4045 153.642L45.985 146.762Z" fill="#FAFAFA" stroke="black" stroke-width="3"/>
<path d="M351.281 143.143C351.281 143.143 342.284 139.673 336.232 138.753C330.75 137.921 322.042 138.323 322.042 138.323" stroke="#010101" stroke-width="3" stroke-linecap="round"/>
<path d="M348.878 155.399C348.878 155.399 334.012 152.675 324.006 153.375C314.945 154.008 300.542 158.103 300.542 158.103" stroke="url(#paint10_linear_31_328)" stroke-width="3" stroke-linecap="round"/>
<path d="M104.464 151.977C104.464 151.977 91.0451 148.485 82.0171 147.559C73.8419 146.722 60.8527 147.127 60.8527 147.127" stroke="url(#paint11_linear_31_328)" stroke-width="3" stroke-linecap="round"/>
<path d="M104.464 141.657C104.464 141.657 91.0451 138.165 82.0171 137.24C73.8419 136.402 60.8527 136.807 60.8527 136.807" stroke="url(#paint12_linear_31_328)" stroke-width="3" stroke-linecap="round"/>
<defs>
<filter id="filter0_f_31_328" x="12.9119" y="131.431" width="190.847" height="105.483" filterUnits="userSpaceOnUse" color-interpolation-filters="sRGB">
<feFlood flood-opacity="0" result="BackgroundImageFix"/>
<feBlend mode="normal" in="SourceGraphic" in2="BackgroundImageFix" result="shape"/>
<feGaussianBlur stdDeviation="15" result="effect1_foregroundBlur_31_328"/>
</filter>
<filter id="filter1_f_31_328" x="196.416" y="128.236" width="258.93" height="98.9995" filterUnits="userSpaceOnUse" color-interpolation-filters="sRGB">
<feFlood flood-opacity="0" result="BackgroundImageFix"/>
<feBlend mode="normal" in="SourceGraphic" in2="BackgroundImageFix" result="shape"/>
<feGaussianBlur stdDeviation="15" result="effect1_foregroundBlur_31_328"/>
</filter>
<linearGradient id="paint0_linear_31_328" x1="287.933" y1="35.0729" x2="314.13" y2="243.758" gradientUnits="userSpaceOnUse">
<stop stop-color="#8F8F90"/>
<stop offset="1" stop-color="#D2D2D2"/>
</linearGradient>
<linearGradient id="paint1_linear_31_328" x1="120.244" y1="70.201" x2="107.145" y2="28.6786" gradientUnits="userSpaceOnUse">
<stop stop-color="#727170"/>
<stop offset="1" stop-color="#ABACAA"/>
</linearGradient>
<linearGradient id="paint2_linear_31_328" x1="295.812" y1="69.5241" x2="307.852" y2="27.8146" gradientUnits="userSpaceOnUse">
<stop stop-color="#727170"/>
<stop offset="1" stop-color="#ABACAA"/>
</linearGradient>
<linearGradient id="paint3_linear_31_328" x1="208.962" y1="174.41" x2="208.962" y2="182.135" gradientUnits="userSpaceOnUse">
<stop stop-color="white"/>
<stop offset="1" stop-color="#2F2F2F"/>
</linearGradient>
<linearGradient id="paint4_linear_31_328" x1="144.783" y1="114.632" x2="123.936" y2="130.472" gradientUnits="userSpaceOnUse">
<stop/>
<stop offset="0.137061" stop-opacity="0"/>
</linearGradient>
<linearGradient id="paint5_linear_31_328" x1="264.574" y1="113.772" x2="284.995" y2="128.253" gradientUnits="userSpaceOnUse">
<stop/>
<stop offset="0.137061" stop-opacity="0"/>
</linearGradient>
<radialGradient id="paint6_radial_31_328" cx="0" cy="0" r="1" gradientUnits="userSpaceOnUse" gradientTransform="translate(67.5092 15.4798) rotate(87.8606) scale(11.5187 50.2238)">
<stop stop-color="#6B6B6B"/>
<stop offset="1" stop-color="#D9D9D9" stop-opacity="0"/>
</radialGradient>
<linearGradient id="paint7_linear_31_328" x1="60.9274" y1="284.014" x2="229.919" y2="223.389" gradientUnits="userSpaceOnUse">
<stop stop-color="#EFEFEE"/>
<stop offset="1" stop-color="#C9C9C9"/>
</linearGradient>
<linearGradient id="paint8_linear_31_328" x1="326.592" y1="247.415" x2="327.803" y2="175.6" gradientUnits="userSpaceOnUse">
<stop stop-color="#A3A39F"/>
<stop offset="1" stop-color="#DDDDDD"/>
</linearGradient>
<radialGradient id="paint9_radial_31_328" cx="0" cy="0" r="1" gradientUnits="userSpaceOnUse" gradientTransform="translate(100.169 15.4798) rotate(86.8274) scale(11.5283 74.4588)">
<stop/>
<stop offset="1" stop-color="#D9D9D9" stop-opacity="0"/>
</radialGradient>
<linearGradient id="paint10_linear_31_328" x1="324.718" y1="152.438" x2="334.969" y2="124.548" gradientUnits="userSpaceOnUse">
<stop/>
<stop offset="1" stop-color="#989898"/>
</linearGradient>
<linearGradient id="paint11_linear_31_328" x1="82.6585" y1="147.127" x2="88.5069" y2="131.53" gradientUnits="userSpaceOnUse">
<stop/>
<stop offset="0.321896" stop-color="#989898"/>
</linearGradient>
<linearGradient id="paint12_linear_31_328" x1="82.6585" y1="136.807" x2="88.5069" y2="121.21" gradientUnits="userSpaceOnUse">
<stop/>
<stop offset="0.321896" stop-color="#989898"/>
</linearGradient>
</defs>
</svg>
